# xmcd CD database file
#
# Track frame offsets:
#	150
#	16155
#	30928
#	47945
#	63842
#	81933
#	97949
#	112966
#	129148
#	144723
#	160651
#	179606
#	196897
#	212563
#	228823
#	245609
#	264226
#	280831
#
# Disc length: 3962 seconds
#
# Revision: 0
# Processed by: cddbd v1.5.2PL0 Copyright (c) Steve Scherf et al.
# Submitted via: CDex 1.70beta2
#
DISCID=e40f7812
DTITLE=Teddy Wilson Trio w. Jo Jones - Complete Recordings - CD 2
DYEAR=2007
DGENRE=Jazz
TTITLE0=Blues for Daryl
TTITLE1=You're Driving Me Crazy
TTITLE2=I Want To Be Happy
TTITLE3=Ain't Misbehavin'
TTITLE4=Honeysuckle Rose
TTITLE5=Fine and Dandy
TTITLE6=Sweet Lorraine
TTITLE7=I Found a New Baby
TTITLE8=It's the Talk of the Town
TTITLE9=Laura
TTITLE10=Undecided
TTITLE11=Time on My Hands
TTITLE12=Who Cares
TTITLE13=Love Is Here To Stay
TTITLE14=When You're Smiling
TTITLE15=Imagination
TTITLE16=The World Is Waiting for the Sunrise
TTITLE17=I've Got The World on a String
EXTD=YEAR: 2007
EXTT0=
EXTT1=
EXTT2=
EXTT3=
EXTT4=
EXTT5=
EXTT6=
EXTT7=
EXTT8=
EXTT9=
EXTT10=
EXTT11=
EXTT12=
EXTT13=
EXTT14=
EXTT15=
EXTT16=
EXTT17=
PLAYORDER=
